<svg width="60" height="60" viewBox="0 0 60 60" fill="none" xmlns="http://www.w3.org/2000/svg">
  <!-- Background -->
  <rect width="60" height="60" rx="12" fill="#0F172A"/>
  <!-- Document -->
  <path d="M18 10H36L46 20V50C46 52 44 54 42 54H18C16 54 14 52 14 50V14C14 12 16 10 18 10Z" fill="#2563EB" opacity="0.2"/>
  <path d="M18 10H36L46 20V50C46 52 44 54 42 54H18C16 54 14 52 14 50V14C14 12 16 10 18 10Z" stroke="#2563EB" stroke-width="2"/>
  <!-- Page fold -->
  <path d="M36 10V20H46" stroke="#2563EB" stroke-width="2" stroke-linecap="round" stroke-linejoin="round"/>
  <!-- Text lines -->
  <path d="M20 28H40" stroke="#10B981" stroke-width="2" stroke-linecap="round"/>
  <path d="M20 34H36" stroke="#10B981" stroke-width="2" stroke-linecap="round" opacity="0.7"/>
  <path d="M20 40H32" stroke="#10B981" stroke-width="2" stroke-linecap="round" opacity="0.5"/>
  <!-- AI processing indicator -->
  <circle cx="42" cy="44" r="6" fill="#8B5CF6"/>
  <path d="M40 44L41.5 45.5L44 42" stroke="white" stroke-width="1.5" stroke-linecap="round" stroke-linejoin="round"/>
</svg>
